<mxfile host="app.diagrams.net" modified="2022-09-20T22:56:34.452Z" agent="5.0 (Windows NT 10.0; Win64; x64) AppleWebKit/537.36 (KHTML, like Gecko) Chrome/105.0.0.0 Safari/537.36" etag="XCwBtano0w9OBmhM79FM" version="20.3.3" type="github">
  <diagram id="301SIHyl_arGC_1ZSfzn" name="Page-1">
    <mxGraphModel dx="1114" dy="579" grid="1" gridSize="10" guides="1" tooltips="1" connect="1" arrows="1" fold="1" page="1" pageScale="1" pageWidth="1600" pageHeight="900" math="0" shadow="0">
      <root>
        <mxCell id="0" />
        <mxCell id="1" parent="0" />
        <mxCell id="H-BAMyDs9uWqxnNvnJeo-5" value="Amazon &lt;br&gt;CloudFront" style="sketch=0;points=[[0,0,0],[0.25,0,0],[0.5,0,0],[0.75,0,0],[1,0,0],[0,1,0],[0.25,1,0],[0.5,1,0],[0.75,1,0],[1,1,0],[0,0.25,0],[0,0.5,0],[0,0.75,0],[1,0.25,0],[1,0.5,0],[1,0.75,0]];outlineConnect=0;fontColor=#232F3E;gradientColor=#945DF2;gradientDirection=north;fillColor=#5A30B5;strokeColor=#ffffff;dashed=0;verticalLabelPosition=bottom;verticalAlign=top;align=center;html=1;fontSize=12;fontStyle=0;aspect=fixed;shape=mxgraph.aws4.resourceIcon;resIcon=mxgraph.aws4.cloudfront;" parent="1" vertex="1">
          <mxGeometry x="401" y="280" width="40" height="40" as="geometry" />
        </mxCell>
        <mxCell id="H-BAMyDs9uWqxnNvnJeo-6" value="" style="sketch=0;points=[[0,0,0],[0.25,0,0],[0.5,0,0],[0.75,0,0],[1,0,0],[0,1,0],[0.25,1,0],[0.5,1,0],[0.75,1,0],[1,1,0],[0,0.25,0],[0,0.5,0],[0,0.75,0],[1,0.25,0],[1,0.5,0],[1,0.75,0]];outlineConnect=0;fontColor=#232F3E;gradientColor=#945DF2;gradientDirection=north;fillColor=#5A30B5;strokeColor=#ffffff;dashed=0;verticalLabelPosition=bottom;verticalAlign=top;align=center;html=1;fontSize=12;fontStyle=0;aspect=fixed;shape=mxgraph.aws4.resourceIcon;resIcon=mxgraph.aws4.route_53;" parent="1" vertex="1">
          <mxGeometry x="198" y="160" width="42" height="42" as="geometry" />
        </mxCell>
        <mxCell id="H-BAMyDs9uWqxnNvnJeo-9" value="users" style="sketch=0;outlineConnect=0;gradientColor=none;fontColor=#545B64;strokeColor=none;fillColor=#879196;dashed=0;verticalLabelPosition=bottom;verticalAlign=top;align=center;html=1;fontSize=12;fontStyle=0;aspect=fixed;shape=mxgraph.aws4.illustration_users;pointerEvents=1" parent="1" vertex="1">
          <mxGeometry x="200" y="278" width="40" height="40" as="geometry" />
        </mxCell>
        <mxCell id="H-BAMyDs9uWqxnNvnJeo-13" value="" style="edgeStyle=orthogonalEdgeStyle;html=1;endArrow=block;elbow=vertical;startArrow=block;startFill=1;endFill=1;strokeColor=#545B64;rounded=0;exitX=0.5;exitY=1;exitDx=0;exitDy=0;exitPerimeter=0;" parent="1" source="H-BAMyDs9uWqxnNvnJeo-6" target="H-BAMyDs9uWqxnNvnJeo-9" edge="1">
          <mxGeometry width="100" relative="1" as="geometry">
            <mxPoint x="590" y="410" as="sourcePoint" />
            <mxPoint x="220" y="260" as="targetPoint" />
            <Array as="points">
              <mxPoint x="219" y="240" />
              <mxPoint x="220" y="240" />
            </Array>
          </mxGeometry>
        </mxCell>
        <mxCell id="H-BAMyDs9uWqxnNvnJeo-15" style="edgeStyle=orthogonalEdgeStyle;rounded=0;orthogonalLoop=1;jettySize=auto;html=1;" parent="1" source="H-BAMyDs9uWqxnNvnJeo-14" target="H-BAMyDs9uWqxnNvnJeo-5" edge="1">
          <mxGeometry relative="1" as="geometry" />
        </mxCell>
        <mxCell id="H-BAMyDs9uWqxnNvnJeo-14" value="WAF" style="sketch=0;points=[[0,0,0],[0.25,0,0],[0.5,0,0],[0.75,0,0],[1,0,0],[0,1,0],[0.25,1,0],[0.5,1,0],[0.75,1,0],[1,1,0],[0,0.25,0],[0,0.5,0],[0,0.75,0],[1,0.25,0],[1,0.5,0],[1,0.75,0]];outlineConnect=0;fontColor=#232F3E;gradientColor=#F54749;gradientDirection=north;fillColor=#C7131F;strokeColor=#ffffff;dashed=0;verticalLabelPosition=bottom;verticalAlign=top;align=center;html=1;fontSize=12;fontStyle=0;aspect=fixed;shape=mxgraph.aws4.resourceIcon;resIcon=mxgraph.aws4.waf;" parent="1" vertex="1">
          <mxGeometry x="319" y="280" width="41" height="41" as="geometry" />
        </mxCell>
        <mxCell id="H-BAMyDs9uWqxnNvnJeo-17" value="Per" style="points=[[0,0],[0.25,0],[0.5,0],[0.75,0],[1,0],[1,0.25],[1,0.5],[1,0.75],[1,1],[0.75,1],[0.5,1],[0.25,1],[0,1],[0,0.75],[0,0.5],[0,0.25]];outlineConnect=0;gradientColor=none;html=1;whiteSpace=wrap;fontSize=12;fontStyle=0;container=1;pointerEvents=0;collapsible=0;recursiveResize=0;shape=mxgraph.aws4.group;grIcon=mxgraph.aws4.group_aws_cloud_alt;strokeColor=#232F3E;fillColor=none;verticalAlign=top;align=left;spacingLeft=30;fontColor=#232F3E;dashed=0;shadow=0;" parent="1" vertex="1">
          <mxGeometry x="130" y="90" width="1190" height="710" as="geometry" />
        </mxCell>
        <mxCell id="H-BAMyDs9uWqxnNvnJeo-7" value="Amazon s3&lt;br&gt;Static Storage&lt;br&gt;and Backups" style="sketch=0;points=[[0,0,0],[0.25,0,0],[0.5,0,0],[0.75,0,0],[1,0,0],[0,1,0],[0.25,1,0],[0.5,1,0],[0.75,1,0],[1,1,0],[0,0.25,0],[0,0.5,0],[0,0.75,0],[1,0.25,0],[1,0.5,0],[1,0.75,0]];outlineConnect=0;fontColor=#232F3E;gradientColor=#60A337;gradientDirection=north;fillColor=#277116;strokeColor=#ffffff;dashed=0;verticalLabelPosition=bottom;verticalAlign=top;align=center;html=1;fontSize=12;fontStyle=0;aspect=fixed;shape=mxgraph.aws4.resourceIcon;resIcon=mxgraph.aws4.s3;" parent="H-BAMyDs9uWqxnNvnJeo-17" vertex="1">
          <mxGeometry x="350" y="70" width="40" height="40" as="geometry" />
        </mxCell>
        <mxCell id="H-BAMyDs9uWqxnNvnJeo-1" value="VPC" style="points=[[0,0],[0.25,0],[0.5,0],[0.75,0],[1,0],[1,0.25],[1,0.5],[1,0.75],[1,1],[0.75,1],[0.5,1],[0.25,1],[0,1],[0,0.75],[0,0.5],[0,0.25]];outlineConnect=0;gradientColor=none;html=1;whiteSpace=wrap;fontSize=12;fontStyle=0;container=1;pointerEvents=0;collapsible=0;recursiveResize=0;shape=mxgraph.aws4.group;grIcon=mxgraph.aws4.group_vpc;strokeColor=#248814;fillColor=none;verticalAlign=top;align=left;spacingLeft=30;fontColor=#AAB7B8;dashed=0;" parent="H-BAMyDs9uWqxnNvnJeo-17" vertex="1">
          <mxGeometry x="430" y="30" width="650" height="480" as="geometry" />
        </mxCell>
        <mxCell id="H-BAMyDs9uWqxnNvnJeo-21" value="Auto Scaling group" style="points=[[0,0],[0.25,0],[0.5,0],[0.75,0],[1,0],[1,0.25],[1,0.5],[1,0.75],[1,1],[0.75,1],[0.5,1],[0.25,1],[0,1],[0,0.75],[0,0.5],[0,0.25]];outlineConnect=0;gradientColor=none;html=1;whiteSpace=wrap;fontSize=12;fontStyle=0;container=1;pointerEvents=0;collapsible=0;recursiveResize=0;shape=mxgraph.aws4.groupCenter;grIcon=mxgraph.aws4.group_auto_scaling_group;grStroke=1;strokeColor=#D86613;fillColor=none;verticalAlign=top;align=center;fontColor=#D86613;dashed=1;spacingTop=25;shadow=0;" parent="H-BAMyDs9uWqxnNvnJeo-1" vertex="1">
          <mxGeometry x="186" y="137" width="130" height="130" as="geometry" />
        </mxCell>
        <mxCell id="H-BAMyDs9uWqxnNvnJeo-22" value="" style="sketch=0;points=[[0,0,0],[0.25,0,0],[0.5,0,0],[0.75,0,0],[1,0,0],[0,1,0],[0.25,1,0],[0.5,1,0],[0.75,1,0],[1,1,0],[0,0.25,0],[0,0.5,0],[0,0.75,0],[1,0.25,0],[1,0.5,0],[1,0.75,0]];outlineConnect=0;fontColor=#232F3E;gradientColor=#F78E04;gradientDirection=north;fillColor=#D05C17;strokeColor=#ffffff;dashed=0;verticalLabelPosition=bottom;verticalAlign=top;align=center;html=1;fontSize=12;fontStyle=0;aspect=fixed;shape=mxgraph.aws4.resourceIcon;resIcon=mxgraph.aws4.ec2;shadow=0;" parent="H-BAMyDs9uWqxnNvnJeo-21" vertex="1">
          <mxGeometry x="35" y="53" width="60" height="60" as="geometry" />
        </mxCell>
        <mxCell id="H-BAMyDs9uWqxnNvnJeo-27" value="Elastic Load&lt;br&gt;Balancing" style="sketch=0;points=[[0,0,0],[0.25,0,0],[0.5,0,0],[0.75,0,0],[1,0,0],[0,1,0],[0.25,1,0],[0.5,1,0],[0.75,1,0],[1,1,0],[0,0.25,0],[0,0.5,0],[0,0.75,0],[1,0.25,0],[1,0.5,0],[1,0.75,0]];outlineConnect=0;fontColor=#232F3E;gradientColor=#945DF2;gradientDirection=north;fillColor=#5A30B5;strokeColor=#ffffff;dashed=0;verticalLabelPosition=bottom;verticalAlign=top;align=center;html=1;fontSize=12;fontStyle=0;aspect=fixed;shape=mxgraph.aws4.resourceIcon;resIcon=mxgraph.aws4.elastic_load_balancing;" parent="H-BAMyDs9uWqxnNvnJeo-1" vertex="1">
          <mxGeometry x="346" y="160" width="39" height="39" as="geometry" />
        </mxCell>
        <mxCell id="H-BAMyDs9uWqxnNvnJeo-4" value="Elastic Load&lt;br&gt;Balancing" style="sketch=0;points=[[0,0,0],[0.25,0,0],[0.5,0,0],[0.75,0,0],[1,0,0],[0,1,0],[0.25,1,0],[0.5,1,0],[0.75,1,0],[1,1,0],[0,0.25,0],[0,0.5,0],[0,0.75,0],[1,0.25,0],[1,0.5,0],[1,0.75,0]];outlineConnect=0;fontColor=#232F3E;gradientColor=#945DF2;gradientDirection=north;fillColor=#5A30B5;strokeColor=#ffffff;dashed=0;verticalLabelPosition=bottom;verticalAlign=top;align=center;html=1;fontSize=12;fontStyle=0;aspect=fixed;shape=mxgraph.aws4.resourceIcon;resIcon=mxgraph.aws4.elastic_load_balancing;" parent="H-BAMyDs9uWqxnNvnJeo-1" vertex="1">
          <mxGeometry x="106" y="160" width="39" height="39" as="geometry" />
        </mxCell>
        <mxCell id="H-BAMyDs9uWqxnNvnJeo-25" value="" style="edgeStyle=orthogonalEdgeStyle;html=1;endArrow=block;elbow=vertical;startArrow=none;endFill=1;strokeColor=#545B64;rounded=0;exitX=1;exitY=0.5;exitDx=0;exitDy=0;exitPerimeter=0;entryX=-0.023;entryY=0.323;entryDx=0;entryDy=0;entryPerimeter=0;" parent="H-BAMyDs9uWqxnNvnJeo-1" source="H-BAMyDs9uWqxnNvnJeo-4" target="H-BAMyDs9uWqxnNvnJeo-21" edge="1">
          <mxGeometry width="100" relative="1" as="geometry">
            <mxPoint x="96" y="290" as="sourcePoint" />
            <mxPoint x="196" y="290" as="targetPoint" />
          </mxGeometry>
        </mxCell>
        <mxCell id="H-BAMyDs9uWqxnNvnJeo-31" value="" style="edgeStyle=orthogonalEdgeStyle;html=1;endArrow=block;elbow=vertical;startArrow=none;endFill=1;strokeColor=#545B64;rounded=0;exitX=1;exitY=0.25;exitDx=0;exitDy=0;entryX=0;entryY=0.25;entryDx=0;entryDy=0;entryPerimeter=0;" parent="H-BAMyDs9uWqxnNvnJeo-1" source="H-BAMyDs9uWqxnNvnJeo-21" target="H-BAMyDs9uWqxnNvnJeo-27" edge="1">
          <mxGeometry width="100" relative="1" as="geometry">
            <mxPoint x="96" y="290" as="sourcePoint" />
            <mxPoint x="196" y="290" as="targetPoint" />
          </mxGeometry>
        </mxCell>
        <mxCell id="H-BAMyDs9uWqxnNvnJeo-32" value="Auto Scaling group" style="points=[[0,0],[0.25,0],[0.5,0],[0.75,0],[1,0],[1,0.25],[1,0.5],[1,0.75],[1,1],[0.75,1],[0.5,1],[0.25,1],[0,1],[0,0.75],[0,0.5],[0,0.25]];outlineConnect=0;gradientColor=none;html=1;whiteSpace=wrap;fontSize=12;fontStyle=0;container=1;pointerEvents=0;collapsible=0;recursiveResize=0;shape=mxgraph.aws4.groupCenter;grIcon=mxgraph.aws4.group_auto_scaling_group;grStroke=1;strokeColor=#D86613;fillColor=none;verticalAlign=top;align=center;fontColor=#D86613;dashed=1;spacingTop=25;shadow=0;" parent="H-BAMyDs9uWqxnNvnJeo-1" vertex="1">
          <mxGeometry x="426" y="137" width="130" height="130" as="geometry" />
        </mxCell>
        <mxCell id="H-BAMyDs9uWqxnNvnJeo-33" value="" style="sketch=0;points=[[0,0,0],[0.25,0,0],[0.5,0,0],[0.75,0,0],[1,0,0],[0,1,0],[0.25,1,0],[0.5,1,0],[0.75,1,0],[1,1,0],[0,0.25,0],[0,0.5,0],[0,0.75,0],[1,0.25,0],[1,0.5,0],[1,0.75,0]];outlineConnect=0;fontColor=#232F3E;gradientColor=#F78E04;gradientDirection=north;fillColor=#D05C17;strokeColor=#ffffff;dashed=0;verticalLabelPosition=bottom;verticalAlign=top;align=center;html=1;fontSize=12;fontStyle=0;aspect=fixed;shape=mxgraph.aws4.resourceIcon;resIcon=mxgraph.aws4.ec2;shadow=0;" parent="H-BAMyDs9uWqxnNvnJeo-32" vertex="1">
          <mxGeometry x="35" y="53" width="60" height="60" as="geometry" />
        </mxCell>
        <mxCell id="H-BAMyDs9uWqxnNvnJeo-34" value="" style="edgeStyle=orthogonalEdgeStyle;html=1;endArrow=block;elbow=vertical;startArrow=none;endFill=1;strokeColor=#545B64;rounded=0;exitX=1;exitY=0.25;exitDx=0;exitDy=0;exitPerimeter=0;entryX=0;entryY=0.25;entryDx=0;entryDy=0;" parent="H-BAMyDs9uWqxnNvnJeo-1" source="H-BAMyDs9uWqxnNvnJeo-27" target="H-BAMyDs9uWqxnNvnJeo-32" edge="1">
          <mxGeometry width="100" relative="1" as="geometry">
            <mxPoint x="96" y="290" as="sourcePoint" />
            <mxPoint x="196" y="290" as="targetPoint" />
          </mxGeometry>
        </mxCell>
        <mxCell id="H-BAMyDs9uWqxnNvnJeo-35" value="DynamoDB" style="sketch=0;points=[[0,0,0],[0.25,0,0],[0.5,0,0],[0.75,0,0],[1,0,0],[0,1,0],[0.25,1,0],[0.5,1,0],[0.75,1,0],[1,1,0],[0,0.25,0],[0,0.5,0],[0,0.75,0],[1,0.25,0],[1,0.5,0],[1,0.75,0]];outlineConnect=0;fontColor=#232F3E;gradientColor=#4D72F3;gradientDirection=north;fillColor=#3334B9;strokeColor=#ffffff;dashed=0;verticalLabelPosition=bottom;verticalAlign=top;align=center;html=1;fontSize=12;fontStyle=0;aspect=fixed;shape=mxgraph.aws4.resourceIcon;resIcon=mxgraph.aws4.dynamodb;shadow=0;" parent="H-BAMyDs9uWqxnNvnJeo-1" vertex="1">
          <mxGeometry x="504" y="320" width="40" height="40" as="geometry" />
        </mxCell>
        <mxCell id="H-BAMyDs9uWqxnNvnJeo-36" value="DAX" style="sketch=0;outlineConnect=0;fontColor=#232F3E;gradientColor=none;fillColor=#2E27AD;strokeColor=none;dashed=0;verticalLabelPosition=bottom;verticalAlign=top;align=center;html=1;fontSize=12;fontStyle=0;aspect=fixed;pointerEvents=1;shape=mxgraph.aws4.cache_node;shadow=0;" parent="H-BAMyDs9uWqxnNvnJeo-1" vertex="1">
          <mxGeometry x="438" y="320" width="40" height="40" as="geometry" />
        </mxCell>
        <mxCell id="H-BAMyDs9uWqxnNvnJeo-37" value="" style="edgeStyle=orthogonalEdgeStyle;html=1;endArrow=block;elbow=vertical;startArrow=none;endFill=1;strokeColor=#545B64;rounded=0;exitX=0.25;exitY=1;exitDx=0;exitDy=0;" parent="H-BAMyDs9uWqxnNvnJeo-1" source="H-BAMyDs9uWqxnNvnJeo-32" target="H-BAMyDs9uWqxnNvnJeo-36" edge="1">
          <mxGeometry width="100" relative="1" as="geometry">
            <mxPoint x="186" y="290" as="sourcePoint" />
            <mxPoint x="286" y="290" as="targetPoint" />
          </mxGeometry>
        </mxCell>
        <mxCell id="H-BAMyDs9uWqxnNvnJeo-38" value="" style="edgeStyle=orthogonalEdgeStyle;html=1;endArrow=block;elbow=vertical;startArrow=none;endFill=1;strokeColor=#545B64;rounded=0;exitX=0.75;exitY=1;exitDx=0;exitDy=0;entryX=0.5;entryY=0;entryDx=0;entryDy=0;entryPerimeter=0;" parent="H-BAMyDs9uWqxnNvnJeo-1" source="H-BAMyDs9uWqxnNvnJeo-32" target="H-BAMyDs9uWqxnNvnJeo-35" edge="1">
          <mxGeometry width="100" relative="1" as="geometry">
            <mxPoint x="186" y="290" as="sourcePoint" />
            <mxPoint x="286" y="290" as="targetPoint" />
          </mxGeometry>
        </mxCell>
        <mxCell id="H-BAMyDs9uWqxnNvnJeo-39" value="" style="edgeStyle=orthogonalEdgeStyle;html=1;endArrow=block;elbow=vertical;startArrow=none;endFill=1;strokeColor=#545B64;rounded=0;entryX=0;entryY=0.5;entryDx=0;entryDy=0;entryPerimeter=0;" parent="H-BAMyDs9uWqxnNvnJeo-1" source="H-BAMyDs9uWqxnNvnJeo-36" target="H-BAMyDs9uWqxnNvnJeo-35" edge="1">
          <mxGeometry width="100" relative="1" as="geometry">
            <mxPoint x="186" y="290" as="sourcePoint" />
            <mxPoint x="286" y="290" as="targetPoint" />
          </mxGeometry>
        </mxCell>
        <mxCell id="H-BAMyDs9uWqxnNvnJeo-42" value="Internet&lt;br&gt;Gateway" style="sketch=0;outlineConnect=0;fontColor=#232F3E;gradientColor=none;fillColor=#4D27AA;strokeColor=none;dashed=0;verticalLabelPosition=bottom;verticalAlign=top;align=center;html=1;fontSize=12;fontStyle=0;aspect=fixed;pointerEvents=1;shape=mxgraph.aws4.internet_gateway;shadow=0;" parent="H-BAMyDs9uWqxnNvnJeo-1" vertex="1">
          <mxGeometry x="20" y="160" width="40" height="40" as="geometry" />
        </mxCell>
        <mxCell id="H-BAMyDs9uWqxnNvnJeo-44" value="" style="edgeStyle=orthogonalEdgeStyle;html=1;endArrow=block;elbow=vertical;startArrow=none;endFill=1;strokeColor=#545B64;rounded=0;entryX=0;entryY=0.5;entryDx=0;entryDy=0;entryPerimeter=0;" parent="H-BAMyDs9uWqxnNvnJeo-1" source="H-BAMyDs9uWqxnNvnJeo-42" target="H-BAMyDs9uWqxnNvnJeo-4" edge="1">
          <mxGeometry width="100" relative="1" as="geometry">
            <mxPoint x="120" y="290" as="sourcePoint" />
            <mxPoint x="220" y="290" as="targetPoint" />
          </mxGeometry>
        </mxCell>
        <mxCell id="H-BAMyDs9uWqxnNvnJeo-26" value="" style="edgeStyle=orthogonalEdgeStyle;html=1;endArrow=block;elbow=vertical;startArrow=none;endFill=1;strokeColor=#545B64;rounded=0;exitX=0.5;exitY=0;exitDx=0;exitDy=0;entryX=1;entryY=0.5;entryDx=0;entryDy=0;entryPerimeter=0;" parent="H-BAMyDs9uWqxnNvnJeo-17" source="H-BAMyDs9uWqxnNvnJeo-21" target="H-BAMyDs9uWqxnNvnJeo-7" edge="1">
          <mxGeometry width="100" relative="1" as="geometry">
            <mxPoint x="460" y="320" as="sourcePoint" />
            <mxPoint x="560" y="320" as="targetPoint" />
          </mxGeometry>
        </mxCell>
        <mxCell id="H-BAMyDs9uWqxnNvnJeo-40" value="Translate" style="sketch=0;points=[[0,0,0],[0.25,0,0],[0.5,0,0],[0.75,0,0],[1,0,0],[0,1,0],[0.25,1,0],[0.5,1,0],[0.75,1,0],[1,1,0],[0,0.25,0],[0,0.5,0],[0,0.75,0],[1,0.25,0],[1,0.5,0],[1,0.75,0]];outlineConnect=0;fontColor=#232F3E;gradientColor=#4AB29A;gradientDirection=north;fillColor=#116D5B;strokeColor=#ffffff;dashed=0;verticalLabelPosition=bottom;verticalAlign=top;align=center;html=1;fontSize=12;fontStyle=0;aspect=fixed;shape=mxgraph.aws4.resourceIcon;resIcon=mxgraph.aws4.translate;shadow=0;" parent="H-BAMyDs9uWqxnNvnJeo-17" vertex="1">
          <mxGeometry x="350" y="310" width="40" height="40" as="geometry" />
        </mxCell>
        <mxCell id="H-BAMyDs9uWqxnNvnJeo-41" value="Personalize" style="sketch=0;points=[[0,0,0],[0.25,0,0],[0.5,0,0],[0.75,0,0],[1,0,0],[0,1,0],[0.25,1,0],[0.5,1,0],[0.75,1,0],[1,1,0],[0,0.25,0],[0,0.5,0],[0,0.75,0],[1,0.25,0],[1,0.5,0],[1,0.75,0]];outlineConnect=0;fontColor=#232F3E;gradientColor=#4AB29A;gradientDirection=north;fillColor=#116D5B;strokeColor=#ffffff;dashed=0;verticalLabelPosition=bottom;verticalAlign=top;align=center;html=1;fontSize=12;fontStyle=0;aspect=fixed;shape=mxgraph.aws4.resourceIcon;resIcon=mxgraph.aws4.personalize;shadow=0;" parent="H-BAMyDs9uWqxnNvnJeo-17" vertex="1">
          <mxGeometry x="350" y="390" width="40" height="40" as="geometry" />
        </mxCell>
        <mxCell id="H-BAMyDs9uWqxnNvnJeo-2" value="Amazon &lt;br&gt;Shield" style="sketch=0;points=[[0,0,0],[0.25,0,0],[0.5,0,0],[0.75,0,0],[1,0,0],[0,1,0],[0.25,1,0],[0.5,1,0],[0.75,1,0],[1,1,0],[0,0.25,0],[0,0.5,0],[0,0.75,0],[1,0.25,0],[1,0.5,0],[1,0.75,0]];outlineConnect=0;fontColor=#232F3E;gradientColor=#F54749;gradientDirection=north;fillColor=#C7131F;strokeColor=#ffffff;dashed=0;verticalLabelPosition=bottom;verticalAlign=top;align=center;html=1;fontSize=12;fontStyle=0;aspect=fixed;shape=mxgraph.aws4.resourceIcon;resIcon=mxgraph.aws4.shield;shadow=0;" parent="H-BAMyDs9uWqxnNvnJeo-17" vertex="1">
          <mxGeometry x="250" y="71" width="39" height="39" as="geometry" />
        </mxCell>
        <mxCell id="H-BAMyDs9uWqxnNvnJeo-20" value="" style="edgeStyle=orthogonalEdgeStyle;html=1;endArrow=block;elbow=vertical;startArrow=none;endFill=1;strokeColor=#545B64;rounded=0;" parent="1" source="H-BAMyDs9uWqxnNvnJeo-9" edge="1">
          <mxGeometry width="100" relative="1" as="geometry">
            <mxPoint x="260" y="298" as="sourcePoint" />
            <mxPoint x="320" y="298" as="targetPoint" />
          </mxGeometry>
        </mxCell>
        <mxCell id="H-BAMyDs9uWqxnNvnJeo-43" value="" style="edgeStyle=orthogonalEdgeStyle;html=1;endArrow=block;elbow=vertical;startArrow=none;endFill=1;strokeColor=#545B64;rounded=0;exitX=1;exitY=0.5;exitDx=0;exitDy=0;exitPerimeter=0;" parent="1" source="H-BAMyDs9uWqxnNvnJeo-5" edge="1">
          <mxGeometry width="100" relative="1" as="geometry">
            <mxPoint x="680" y="410" as="sourcePoint" />
            <mxPoint x="580" y="300" as="targetPoint" />
          </mxGeometry>
        </mxCell>
        <mxCell id="H-BAMyDs9uWqxnNvnJeo-48" value="" style="edgeStyle=orthogonalEdgeStyle;html=1;endArrow=block;elbow=vertical;startArrow=none;endFill=1;strokeColor=#545B64;rounded=0;exitX=0.5;exitY=0;exitDx=0;exitDy=0;exitPerimeter=0;entryX=0;entryY=0.5;entryDx=0;entryDy=0;entryPerimeter=0;" parent="1" source="H-BAMyDs9uWqxnNvnJeo-14" target="H-BAMyDs9uWqxnNvnJeo-2" edge="1">
          <mxGeometry width="100" relative="1" as="geometry">
            <mxPoint x="680" y="410" as="sourcePoint" />
            <mxPoint x="780" y="410" as="targetPoint" />
          </mxGeometry>
        </mxCell>
      </root>
    </mxGraphModel>
  </diagram>
</mxfile>
